<?xml version="1.0" standalone="no"?>
<!DOCTYPE svg PUBLIC "-//W3C//DTD SVG 20010904//EN"
 "http://www.w3.org/TR/2001/REC-SVG-20010904/DTD/svg10.dtd">
<svg version="1.0" xmlns="http://www.w3.org/2000/svg"
 width="160.000000pt" height="160.000000pt" viewBox="0 0 160.000000 160.000000"
 preserveAspectRatio="xMidYMid meet">
<metadata>
Created by potrace 1.11, written by Peter Selinger 2001-2013
</metadata>
<g transform="translate(0.000000,160.000000) scale(0.100000,-0.100000)"
fill="#000000" stroke="none">
<path d="M711 1588 c-19 -5 -58 -25 -88 -44 -56 -35 -83 -78 -83 -128 0 -14
-12 -42 -26 -63 -40 -58 -46 -81 -50 -176 -3 -72 -7 -94 -26 -120 -18 -26 -23
-45 -23 -98 l0 -66 -45 -21 c-50 -23 -98 -63 -125 -104 -13 -22 -14 -28 -4
-29 59 -3 111 -24 153 -61 18 -17 17 -17 -25 -12 -95 11 -157 11 -188 -2 -38
-16 -158 -136 -172 -171 -20 -53 8 -142 73 -234 44 -61 105 -173 127 -231 l11
-28 685 0 685 0 1 58 c4 190 -4 332 -22 379 -6 15 -9 29 -8 31 1 2 -8 25 -21
51 -45 89 -150 131 -255 102 l-40 -11 40 38 c86 80 188 132 261 132 53 0 56
12 12 52 -51 46 -128 87 -185 99 -29 6 -53 14 -53 19 0 5 8 24 18 42 19 33 30
69 39 121 5 33 -11 35 -67 7 -50 -26 -56 -25 -37 3 8 13 21 43 27 66 12 47 2
81 -47 151 l-25 35 29 -30 c16 -16 37 -36 46 -44 16 -13 17 -12 8 13 -44 114
-179 228 -319 269 -56 17 -227 20 -281 5z"/>
</g>
</svg>
